<mxfile host="app.diagrams.net" modified="2024-01-03T05:48:43.915Z" agent="Mozilla/5.0 (Macintosh; Intel Mac OS X 10_15_7) AppleWebKit/605.1.15 (KHTML, like Gecko) Version/17.2.1 Safari/605.1.15" version="22.1.16" etag="raXclWwywlzDmHF2h8_D" type="github">
  <diagram name="第 1 页" id="laNZxUXsTQiLeZ5NJqqg">
    <mxGraphModel>
      <root>
        <mxCell id="0" />
        <mxCell id="1" parent="0" />
      </root>
    </mxGraphModel>
  </diagram>
</mxfile>
